<svg xmlns="http://www.w3.org/2000/svg" viewBox="0 0 320 72" fill="none">
  <defs>
    <linearGradient id="mark-grad" x1="0" y1="0" x2="48" y2="48" gradientUnits="userSpaceOnUse">
      <stop stop-color="#DC2626"/>
      <stop offset="1" stop-color="#EF4444"/>
    </linearGradient>
  </defs>

  <!-- ICON: Abstract diamond-prism -->
  <g transform="translate(4, 12)">
    <path d="M 24 0 L 48 24 L 24 48 L 0 24 Z" fill="url(#mark-grad)" opacity="0.12"/>
    <path d="M 24 6 L 42 24 L 24 42 L 6 24 Z" fill="none" stroke="url(#mark-grad)" stroke-width="2.5"/>
    <path d="M 6 24 L 24 18 L 24 30 Z" fill="#DC2626" opacity="0.25"/>
    <path d="M 42 24 L 24 18 L 24 30 Z" fill="#EF4444" opacity="0.25"/>
    <line x1="24" y1="6" x2="24" y2="42" stroke="url(#mark-grad)" stroke-width="1.5" opacity="0.5"/>
    <line x1="6" y1="24" x2="42" y2="24" stroke="url(#mark-grad)" stroke-width="1.5" opacity="0.5"/>
    <circle cx="24" cy="24" r="4" fill="url(#mark-grad)"/>
    <circle cx="24" cy="24" r="2" fill="white"/>
    <line x1="28" y1="20" x2="38" y2="10" stroke="#DC2626" stroke-width="1.5" stroke-linecap="round" opacity="0.7"/>
    <line x1="30" y1="22" x2="40" y2="14" stroke="#B91C1C" stroke-width="1.5" stroke-linecap="round" opacity="0.5"/>
    <line x1="29" y1="18" x2="36" y2="7" stroke="#EF4444" stroke-width="1.5" stroke-linecap="round" opacity="0.6"/>
  </g>

  <!-- WORDMARK -->
  <text x="64" y="46" font-family="'Inter', -apple-system, BlinkMacSystemFont, 'Segoe UI', sans-serif" font-size="32" font-weight="800" letter-spacing="-1.2" fill="#0f172a">
    Pitch<tspan font-weight="800" fill="#DC2626">Lens</tspan>
  </text>
  
  <text x="65" y="62" font-family="'Inter', -apple-system, BlinkMacSystemFont, 'Segoe UI', sans-serif" font-size="10" font-weight="500" letter-spacing="2" fill="#94a3b8">
    AI DECK ANALYSIS
  </text>
</svg>
